
<svg class="animated" id="freepik_stories-track-cycling" xmlns="http://www.w3.org/2000/svg" viewBox="0 0 750 500" version="1.1" xmlns:xlink="http://www.w3.org/1999/xlink" xmlns:svgjs="http://svgjs.com/svgjs"><g id="freepik--background-complete--inject-74" class="animable" style="transform-origin: 375px 233.445px;"><rect x="652.7" y="410.17" width="55.73" height="0.42" style="fill: rgb(224, 224, 224); transform-origin: 680.565px 410.38px;" id="eliegf7jhsy" class="animable"></rect><rect x="494.12" y="414.74" width="14.63" height="0.42" style="fill: rgb(224, 224, 224); transform-origin: 501.435px 414.95px;" id="elw24m740cdkn" class="animable"></rect><rect x="39.72" y="397.38" width="72.67" height="0.42" style="fill: rgb(224, 224, 224); transform-origin: 76.055px 397.59px;" id="el1gte34vhs5e" class="animable"></rect><rect x="127.38" y="397.38" width="10.66" height="0.42" style="fill: rgb(224, 224, 224); transform-origin: 132.71px 397.59px;" id="el223l3dzuckj" class="animable"></rect><rect x="172.66" y="404.48" width="157.61" height="0.42" style="fill: rgb(224, 224, 224); transform-origin: 251.465px 404.69px;" id="el9geh8cc6yp7" class="animable"></rect><path d="M672.81,326.73H492.07a5.87,5.87,0,0,1-5.87-5.86V57.59a5.87,5.87,0,0,1,5.87-5.86H672.81a5.87,5.87,0,0,1,5.86,5.86V320.87A5.87,5.87,0,0,1,672.81,326.73ZM492.07,52a5.62,5.62,0,0,0-5.62,5.61V320.87a5.62,5.62,0,0,0,5.62,5.61H672.81a5.61,5.61,0,0,0,5.61-5.61V57.59A5.61,5.61,0,0,0,672.81,52Z" style="fill: rgb(224, 224, 224); transform-origin: 582.435px 189.23px;" id="elgu529avtbka" class="animable"></path><path d="M464.38,326.73H283.64a5.86,5.86,0,0,1-5.86-5.86V57.59a5.86,5.86,0,0,1,5.86-5.86H464.38a5.87,5.87,0,0,1,5.87,5.86V320.87A5.87,5.87,0,0,1,464.38,326.73ZM283.64,52A5.61,5.61,0,0,0,278,57.59V320.87a5.61,5.61,0,0,0,5.61,5.61H464.38a5.62,5.62,0,0,0,5.62-5.61V57.59A5.62,5.62,0,0,0,464.38,52Z" style="fill: rgb(224, 224, 224); transform-origin: 374.015px 189.23px;" id="elwfs4xz1htir" class="animable"></path><path d="M256.09,326.73H75.34a5.87,5.87,0,0,1-5.86-5.86V57.59a5.87,5.87,0,0,1,5.86-5.86H256.09A5.87,5.87,0,0,1,262,57.59V320.87A5.87,5.87,0,0,1,256.09,326.73ZM75.34,52a5.62,5.62,0,0,0-5.61,5.61V320.87a5.62,5.62,0,0,0,5.61,5.61H256.09a5.62,5.62,0,0,0,5.61-5.61V57.59A5.62,5.62,0,0,0,256.09,52Z" style="fill: rgb(224, 224, 224); transform-origin: 165.74px 189.23px;" id="el6g8u0zebqfi" class="animable"></path><rect y="368.95" width="750" height="0.12" style="fill: rgb(224, 224, 224); transform-origin: 375px 369.01px;" id="elfygxgqlyn6" class="animable"></rect><rect x="20.07" y="222.93" width="708.47" height="84.38" style="fill: rgb(224, 224, 224); transform-origin: 374.305px 265.12px;" id="elsyh3q8w457" class="animable"></rect><rect x="20.07" y="192.69" width="707.09" height="6.27" style="fill: rgb(224, 224, 224); transform-origin: 373.615px 195.825px;" id="elzr9shsinl6g" class="animable"></rect><rect x="694.05" y="196.52" width="6.02" height="30.35" style="fill: rgb(224, 224, 224); transform-origin: 697.06px 211.695px;" id="elheh2zpixz6d" class="animable"></rect><rect x="612.66" y="196.52" width="6.02" height="30.35" style="fill: rgb(224, 224, 224); transform-origin: 615.67px 211.695px;" id="el7ogbu8w2ny5" class="animable"></rect><rect x="531.28" y="196.52" width="6.02" height="30.35" style="fill: rgb(224, 224, 224); transform-origin: 534.29px 211.695px;" id="elmirgwf2rktl" class="animable"></rect><rect x="449.9" y="196.52" width="6.02" height="30.35" style="fill: rgb(224, 224, 224); transform-origin: 452.91px 211.695px;" id="elxweq6r5trz" class="animable"></rect><rect x="368.51" y="196.52" width="6.02" height="30.35" style="fill: rgb(224, 224, 224); transform-origin: 371.52px 211.695px;" id="elfmgh0bdevrp" class="animable"></rect><rect x="287.13" y="196.52" width="6.02" height="30.35" style="fill: rgb(224, 224, 224); transform-origin: 290.14px 211.695px;" id="elagi23x9qigp" class="animable"></rect><rect x="205.74" y="196.52" width="6.02" height="30.35" style="fill: rgb(224, 224, 224); transform-origin: 208.75px 211.695px;" id="elomuyuuk91jm" class="animable"></rect><rect x="124.36" y="196.52" width="6.02" height="30.35" style="fill: rgb(224, 224, 224); transform-origin: 127.37px 211.695px;" id="elo6stxjjgakn" class="animable"></rect><rect x="42.97" y="196.52" width="6.02" height="30.35" style="fill: rgb(224, 224, 224); transform-origin: 45.98px 211.695px;" id="el7flot0d2um" class="animable"></rect><rect x="51.75" y="231.31" width="71.23" height="68.21" style="fill: rgb(240, 240, 240); transform-origin: 87.365px 265.415px;" id="elt5wcqgyr1dm" class="animable"></rect><rect x="20.07" y="231.31" width="19.5" height="68.21" style="fill: rgb(240, 240, 240); transform-origin: 29.82px 265.415px;" id="el1d2qxbaam1b" class="animable"></rect><rect x="134.25" y="231.31" width="71.23" height="68.21" style="fill: rgb(240, 240, 240); transform-origin: 169.865px 265.415px;" id="elcvf1ii26huj" class="animable"></rect><rect x="216.75" y="231.31" width="71.23" height="68.21" style="fill: rgb(240, 240, 240); transform-origin: 252.365px 265.415px;" id="ely5m2vwrn0j8" class="animable"></rect><rect x="295.37" y="231.31" width="71.23" height="68.21" style="fill: rgb(240, 240, 240); transform-origin: 330.985px 265.415px;" id="el4g3nrn9zz7v" class="animable"></rect><rect x="375.92" y="231.31" width="71.23" height="68.21" style="fill: rgb(240, 240, 240); transform-origin: 411.535px 265.415px;" id="elez5retfqand" class="animable"></rect><rect x="457.45" y="231.31" width="71.23" height="68.21" style="fill: rgb(240, 240, 240); transform-origin: 493.065px 265.415px;" id="el1eza7v3l2cm" class="animable"></rect><rect x="538.98" y="231.31" width="71.23" height="68.21" style="fill: rgb(240, 240, 240); transform-origin: 574.595px 265.415px;" id="ela64ht1sj2p9" class="animable"></rect><rect x="620.5" y="231.31" width="71.23" height="68.21" style="fill: rgb(240, 240, 240); transform-origin: 656.115px 265.415px;" id="elc7p1j51uvyn" class="animable"></rect><rect x="702.03" y="231.31" width="26.5" height="68.21" style="fill: rgb(240, 240, 240); transform-origin: 715.28px 265.415px;" id="el9e5djyqqe1e" class="animable"></rect><polygon points="51.75 299.52 122.98 231.31 122.98 248.35 67.24 299.52 51.75 299.52" style="fill: rgb(250, 250, 250); transform-origin: 87.365px 265.415px;" id="elgo7u15pea6q" class="animable"></polygon><polygon points="217 299.52 288.23 231.31 288.23 248.35 232.49 299.52 217 299.52" style="fill: rgb(250, 250, 250); transform-origin: 252.615px 265.415px;" id="elc8cf53zd4np" class="animable"></polygon><polygon points="375.92 299.52 447.15 231.31 447.15 248.35 391.41 299.52 375.92 299.52" style="fill: rgb(250, 250, 250); transform-origin: 411.535px 265.415px;" id="elk12sr7k88pp" class="animable"></polygon><polygon points="537.6 299.52 608.83 231.31 608.83 248.35 553.09 299.52 537.6 299.52" style="fill: rgb(250, 250, 250); transform-origin: 573.215px 265.415px;" id="elxv9p2lezoye" class="animable"></polygon></g><g id="freepik--Shadow--inject-74" class="animable" style="transform-origin: 375px 430.735px;"><path d="M671.56,430.71c0,4.39-132.78,8-296.56,8s-296.56-3.56-296.56-8,132.78-7.95,296.56-7.95S671.56,426.32,671.56,430.71Z" style="fill: rgb(245, 245, 245); transform-origin: 375px 430.735px;" id="elzv5x16pwtym" class="animable"></path></g><g id="freepik--Lines--inject-74" class="animable" style="transform-origin: 360.245px 218.66px;"><path d="M686.49,163.58H637.83a.25.25,0,0,1,0-.5h48.66a.25.25,0,0,1,0,.5Z" style="fill: rgb(38, 50, 56); transform-origin: 662.16px 163.33px;" id="elyfet2u7obn" class="animable"></path><path d="M657,170H615.59a.26.26,0,0,1-.25-.25.25.25,0,0,1,.25-.25H657a.25.25,0,0,1,.25.25A.25.25,0,0,1,657,170Z" style="fill: rgb(38, 50, 56); transform-origin: 636.295px 169.75px;" id="eltsyf50jl5f" class="animable"></path><path d="M394.35,165.08H345.69a.26.26,0,0,1-.25-.25.25.25,0,0,1,.25-.25h48.66a.25.25,0,0,1,.25.25A.25.25,0,0,1,394.35,165.08Z" style="fill: rgb(38, 50, 56); transform-origin: 370.02px 164.83px;" id="elhr3h1zfhgd" class="animable"></path><path d="M364.88,171.48H323.45a.25.25,0,0,1,0-.5h41.43a.25.25,0,0,1,0,.5Z" style="fill: rgb(38, 50, 56); transform-origin: 344.165px 171.23px;" id="elk2f6t8u1oxm" class="animable"></path><path d="M104.91,267.83H56.25a.25.25,0,0,1-.25-.25.25.25,0,0,1,.25-.25h48.66a.26.26,0,0,1,.25.25A.25.25,0,0,1,104.91,267.83Z" style="fill: rgb(38, 50, 56); transform-origin: 80.58px 267.58px;" id="el19y15kdnzzz" class="animable"></path><path d="M75.44,274.24H34a.25.25,0,1,1,0-.5H75.44a.25.25,0,0,1,0,.5Z" style="fill: rgb(38, 50, 56); transform-origin: 54.72px 273.99px;" id="elka6mjrsp8mj" class="animable"></path></g><g id="freepik--character-2--inject-74" class="animable" style="transform-origin: 537.2px 285.181px;"><path d="M544.74,394.73a163.74,163.74,0,0,1-2.43-16.65c-2.25-22.62-5.55-60.85-8.47-67.37-2.71-6,.9-18.21,1.19-22.65.59-9.07,5.22-32.44,5.22-32.44s31.38,14.22,30.48,14.9-9.45,34-9.45,34,2.11,11.91,3.42,25.34c1.47,15-6.86,67.52-6.86,67.52Z" style="fill: rgb(235, 179, 118); transform-origin: 551.793px 326.5px;" id="elkc0g3pb4x1" class="animable"></path><path d="M537.37,271.89A303.67,303.67,0,0,1,548.5,223l38.22-31s8.57,9.93,9.48,20.31-4.52,17.61-8.81,22.58S568,280.41,568,280.41Z" style="fill: rgb(248, 80, 10); transform-origin: 566.835px 236.205px;" id="elnk89j05z77b" class="animable"></path><polygon points="558.25 404.31 553.82 408.09 543.73 403.96 542.75 378.08 560.87 380.64 558.25 404.31" style="fill: rgb(255, 255, 255); transform-origin: 551.81px 393.085px;" id="elbdce8brvpa6" class="animable"></polygon><path d="M543.41,402.61l4.22-.18a3,3,0,0,1,2.45,1.14c2.58,3.22,4.35,1.88,6.86-1.36,1.67-.27,2.21,1.64,2.37,2.15L563,415.69a1.81,1.81,0,0,1-1.14,2.28,1.91,1.91,0,0,1-.52.1l-13.92.62-19.5.86c-5.31.24-6.65-5.07-4.49-5.66,9.75-2.61,16.59-5.82,19.51-8.82C543.46,404.54,542.86,404.2,543.41,402.61Z" style="fill: rgb(248, 80, 10); transform-origin: 542.767px 410.871px;" id="elf9ooeuq3laf" class="animable"></path><path d="M544.31,408.4a.26.26,0,0,1-.21-.11,4.83,4.83,0,0,0-3.5-2,.25.25,0,0,1,0-.5,5.33,5.33,0,0,1,3.86,2.25.25.25,0,0,1-.06.35A.24.24,0,0,1,544.31,408.4Z" style="fill: rgb(38, 50, 56); transform-origin: 542.428px 407.095px;" id="elqhhznoe600d" class="animable"></path><path d="M541.78,410.49a.26.26,0,0,1-.21-.11,4.86,4.86,0,0,0-3.5-2,.25.25,0,0,1-.23-.27.24.24,0,0,1,.27-.23,5.35,5.35,0,0,1,3.87,2.25.25.25,0,0,1-.06.35A.27.27,0,0,1,541.78,410.49Z" style="fill: rgb(38, 50, 56); transform-origin: 539.933px 409.187px;" id="elycmwusb8c3" class="animable"></path><path d="M538.59,412.29a.26.26,0,0,1-.21-.11,4.84,4.84,0,0,0-3.5-2,.25.25,0,0,1-.23-.27.26.26,0,0,1,.28-.23,5.37,5.37,0,0,1,3.86,2.26.25.25,0,0,1-.06.35A.23.23,0,0,1,538.59,412.29Z" style="fill: rgb(38, 50, 56); transform-origin: 536.743px 410.99px;" id="el5vjlhvworye" class="animable"></path><g id="elhq8zvj2w5gt"><path d="M537.37,271.89A303.67,303.67,0,0,1,548.5,223l38.22-31s8.57,9.93,9.48,20.31-4.52,17.61-8.81,22.58S568,280.41,568,280.41Z" style="opacity: 0.2; transform-origin: 566.835px 236.205px;" class="animable"></path></g><g id="elqtowreu7h6"><path d="M536.85,277.13s8.11,7.84,16.4,22.66a86.65,86.65,0,0,1,9,24.95l-4.16,1.32-22.33-41.43Z" style="opacity: 0.3; transform-origin: 549.005px 301.595px;" class="animable"></path></g><g id="elnq5rtybcs39"><path d="M541.48,249.14l12.89-4.67a66.39,66.39,0,0,0,9.61-3.84l10.7-5.3,11.84.2-4.85,10.62-41,6.72Z" style="opacity: 0.3; transform-origin: 563.595px 244.1px;" class="animable"></path></g><path d="M489.47,174s-12.11-4.67-11.76-7.95c0,0-.66.28-.67.28-1-1.53-1.82-3-2.53-4.3l0,0L471,181.71c3.24,2.35,13.55,8.27,15.41,11.07,0,0-2.55,5.78,2.85.1C493.22,188.73,489.47,174,489.47,174Z" style="fill: rgb(235, 179, 118); transform-origin: 481.038px 178.704px;" id="eluq4wtw9757" class="animable"></path><g id="elyr8vabx3nec"><path d="M475.92,184.89l3.95-8c1.69,2.69,4.37,5.38.05,10.67C479.92,187.53,477,185.72,475.92,184.89Z" style="opacity: 0.2; transform-origin: 479.088px 182.225px;" class="animable"></path></g><path d="M441.22,171c1.61,4.11,7.61,10.4,10.43,4.52S438.45,163.87,441.22,171Z" style="fill: rgb(38, 50, 56); transform-origin: 446.441px 172.806px;" id="elp0ns8rwdn8i" class="animable"></path><path d="M468.39,156.4c7.3,8,11.58,12.42,11.7,20.19.19,11.69-12.4,17.7-22,12-8.62-5.14-19.11-17.42-14.72-28A15,15,0,0,1,468.39,156.4Z" style="fill: rgb(235, 179, 118); transform-origin: 461.214px 171.08px;" id="eldim24jcovzi" class="animable"></path><path d="M460.47,146.24c-5.32-3.1-16.27,7.67-17,12.79-.11.77,9.26-2.48,8.75-2.23l3.94-2c.35-.56,1.77-.94,3.65,0,0,0,7.11,9.14,13.84,9.12,1.73-4.89,1.25-7.15-.72-10.74C470,147.83,464.54,146.79,460.47,146.24Z" style="fill: rgb(38, 50, 56); transform-origin: 459.091px 154.805px;" id="el4lp16uet8mk" class="animable"></path><path d="M459.81,169.7c.79.77,1,1.82.51,2.33s-1.57.31-2.36-.47-1-1.81-.51-2.33S459,168.92,459.81,169.7Z" style="fill: rgb(38, 50, 56); transform-origin: 458.885px 170.628px;" id="elee1d274zjht" class="animable"></path><path d="M452.38,177.64c.8.78,1,1.82.51,2.34s-1.57.3-2.36-.47-1-1.82-.51-2.33S451.59,176.87,452.38,177.64Z" style="fill: rgb(38, 50, 56); transform-origin: 451.456px 178.581px;" id="ell9k5lrhv7d" class="animable"></path><path d="M454.41,174.68s1.5,6.36,2.32,8.73c2.08-.14,3.47-2.49,3.47-2.49Z" style="fill: rgb(213, 135, 69); transform-origin: 457.305px 179.045px;" id="elicap2c3qap" class="animable"></path><path d="M458,164.11a.49.49,0,0,1-.41.32,4.2,4.2,0,0,0-3.16,2,.53.53,0,0,1-.7.25.52.52,0,0,1-.24-.69,5.2,5.2,0,0,1,4-2.63.52.52,0,0,1,.59.44A.46.46,0,0,1,458,164.11Z" style="fill: rgb(38, 50, 56); transform-origin: 455.761px 165.042px;" id="el3ay69u47f6h" class="animable"></path><path d="M445.68,177.82a.55.55,0,0,1-.29.08.51.51,0,0,1-.52-.51,5.12,5.12,0,0,1,2.06-4.24.52.52,0,0,1,.72.15.51.51,0,0,1-.14.71,4,4,0,0,0-1.6,3.38A.52.52,0,0,1,445.68,177.82Z" style="fill: rgb(38, 50, 56); transform-origin: 446.303px 175.483px;" id="el2lyo1yfb8l3" class="animable"></path><path d="M465.7,179.93a.26.26,0,0,1-.2-.1.24.24,0,0,1,.05-.35c2.35-1.78,2.1-5.29,1-7a.25.25,0,0,1,.08-.34.26.26,0,0,1,.35.08c1.2,1.95,1.47,5.71-1.15,7.7A.3.3,0,0,1,465.7,179.93Z" style="fill: rgb(38, 50, 56); transform-origin: 466.651px 176.018px;" id="elexk61ykey35" class="animable"></path><path d="M477.84,159.63a10.15,10.15,0,0,1,.73,7.82c-1.1,3.44-4.69,3.19-6.92.59-2-2.34-3.86-6.95-1.53-9.61S476.25,156.7,477.84,159.63Z" style="fill: rgb(235, 179, 118); transform-origin: 474.036px 163.435px;" id="elg1g72zxl0qg" class="animable"></path><g id="elyucpwt451us"><path d="M472.85,165.38a.25.25,0,0,1-.2-.09,5.72,5.72,0,0,1-1.2-2.65,3.64,3.64,0,0,1,.35-2.44,2.23,2.23,0,0,1,2.21-1.13.26.26,0,0,1,.21.29.25.25,0,0,1-.29.2,1.75,1.75,0,0,0-1.7.89,3.21,3.21,0,0,0-.29,2.1A5.2,5.2,0,0,0,473,165a.24.24,0,0,1,0,.35A.22.22,0,0,1,472.85,165.38Z" style="opacity: 0.2; transform-origin: 472.799px 162.219px;" class="animable"></path></g><path d="M466.52,162.27s11.49,14.51,11.38,16.1c-.45,6.61-3.54,9.77-3.54,9.77s.73.17,2.3-2,3.31-4.76,3.26-7-6.16-10.09-7.36-12.4a72.79,72.79,0,0,0-4.05-6.3Z" style="fill: rgb(38, 50, 56); transform-origin: 473.221px 174.292px;" id="elyc3i4ldkzy8" class="animable"></path><polygon points="478 175.71 479.64 168.96 478.57 167.45 476.89 173.54 478 175.71" style="fill: rgb(38, 50, 56); transform-origin: 478.265px 171.58px;" id="elfmyol1q302" class="animable"></polygon><g id="el21h8x8p2e23"><path d="M443.36,179.1s7.88,8,8.68,7.64c3-1.24,12.86-14.26,13.11-15.07s-1.13-9.44-1.43-9.62-5-2.26-5.31-2.12a34.61,34.61,0,0,0-4,1.84C454,162.17,443.36,179.1,443.36,179.1Z" style="fill: rgb(248, 80, 10); opacity: 0.4; transform-origin: 454.27px 173.338px;" class="animable"></path></g><g id="elfydzm2q7x68"><path d="M450.4,186.49c-.07-.05,2.22-18.76,2.22-18.76s3.33-4.63,3.23-4.27-2.71,22.63-2.82,22.72a6.34,6.34,0,0,1-1.45,1,.44.44,0,0,1-.28,0A6.34,6.34,0,0,1,450.4,186.49Z" style="fill: rgb(255, 255, 255); opacity: 0.3; transform-origin: 453.125px 175.321px;" class="animable"></path></g><path d="M477.57,138.79c1.32,0,7.87-.23,4.87,3.91S471,156.05,471,156.05c0,3.81.81,7.26-.17,9.2s-6,6.75-6,6.75-3-2.62-3.14-5.76-.72-4.18-3.44-3.67-15,17.11-15,17.11-5.06-5-6.39-10.9c-1.26-5.59,0-12.64,6.91-19.17C455.31,138.76,469.37,138.52,477.57,138.79Z" style="fill: rgb(248, 80, 10); transform-origin: 459.823px 159.206px;" id="elg7dmju01pbe" class="animable"></path><path d="M449.07,172.12s-8.35-7.16-5.7-14.52c3.6-10,16.93-17.16,16.74-17.11s-3.37,1.08-3.56,1.16-13.08,6.89-15.34,16.86a20.56,20.56,0,0,0,6.3,15.5Z" style="fill: rgb(255, 255, 255); transform-origin: 450.655px 157.25px;" id="elv7xhgaox9w" class="animable"></path><g id="freepik--freepik--Character--inject-280--inject-74" class="animable" style="transform-origin: 537.2px 325.914px;"><path d="M648.82,283h0a74.31,74.31,0,0,0-74.31,74.31h0A74.31,74.31,0,1,0,648.81,283Z" style="fill: rgb(38, 50, 56); transform-origin: 648.82px 357.31px;" id="eloi316487pqj" class="animable"></path><path d="M425.58,292.34a65.05,65.05,0,0,1,65,65h0a65,65,0,1,1-65-65m0-9.33a74.31,74.31,0,1,0,74.31,74.31A74.31,74.31,0,0,0,425.58,283Z" style="fill: rgb(38, 50, 56); transform-origin: 425.58px 357.315px;" id="elb9xa6coc9yp" class="animable"></path><path d="M354.47,357.32a71.13,71.13,0,1,0,71.12-71.12A71.13,71.13,0,0,0,354.47,357.32Z" style="fill: rgb(38, 50, 56); transform-origin: 425.6px 357.33px;" id="elaabhndccumh" class="animable"></path><path d="M646.4,347.29a8,8,0,0,1,2.14,15.65h-.13l-98.07,31.48a13.81,13.81,0,0,1-6.84-26.76l100.48-20h.25a7.88,7.88,0,0,1,2.16-.3h0m0-3.55a11.58,11.58,0,0,0-3.09.43L542.73,364.32A17.3,17.3,0,0,0,547,398.38a17.69,17.69,0,0,0,4.29-.53l98.18-31.48a11.48,11.48,0,0,0-3.06-22.58Z" style="fill: rgb(224, 224, 224); transform-origin: 593.871px 371.085px;" id="el0n9hmm3ptq2i" class="animable"></path><path d="M545.67,381,446.43,267.8a3.1,3.1,0,0,1,.48-4.45,3.67,3.67,0,0,1,4.93.32l95.61,109,60-132.44a3.6,3.6,0,0,1,4.58-1.74,3.2,3.2,0,0,1,1.87,4.28L551.64,380.26a3.47,3.47,0,0,1-2.73,2h-.5A3.59,3.59,0,0,1,545.67,381Z" style="fill: rgb(248, 80, 10); transform-origin: 529.932px 310.243px;" id="elhmll1tc8i9r" class="animable"></path><path d="M547.52,362.27a18,18,0,0,0-18,18.06h0a18.06,18.06,0,1,0,18.06-18.06Z" style="fill: rgb(38, 50, 56); transform-origin: 547.58px 380.33px;" id="elflpfhahhtvv" class="animable"></path><path d="M645.67,355.86,598.89,263.8l-.1-.21a2.12,2.12,0,0,1,1.27-2.83,2.39,2.39,0,0,1,3,1.18L649.89,354a2,2,0,0,1,.23.94,2.26,2.26,0,0,1-2.34,2.17A2.36,2.36,0,0,1,645.67,355.86Z" style="fill: rgb(248, 80, 10); transform-origin: 624.372px 308.857px;" id="el0ihx1ubrh84a" class="animable"></path><path d="M423.69,358.05a3.24,3.24,0,0,1-2.51-4L450,249.59a3.5,3.5,0,0,1,3.71-2.44l147.61,12.44a3.35,3.35,0,0,1,3.18,3.56,3.44,3.44,0,0,1-3.81,3L456,253.92,428,355.74a3.46,3.46,0,0,1-3.39,2.45A3.3,3.3,0,0,1,423.69,358.05Z" style="fill: rgb(248, 80, 10); transform-origin: 512.791px 302.661px;" id="el1j8p11sdvrp" class="animable"></path><path d="M452.86,253.65h0a3.31,3.31,0,0,1-3-3.69L454.13,223a3.46,3.46,0,0,1,4-2.75,3.3,3.3,0,0,1,2.95,3.7l-4.16,26.9a3.43,3.43,0,0,1-3.5,2.79A4.58,4.58,0,0,1,452.86,253.65Z" style="fill: rgb(38, 50, 56); transform-origin: 455.471px 236.926px;" id="elqyzv2plfh8r" class="animable"></path><path d="M538.72,419.59l18.45-74.87a2.33,2.33,0,0,1,4.52,1.11l-18.47,74.91a2.13,2.13,0,0,1-.23.59,2.32,2.32,0,0,1-4.27-1.74Z" style="fill: rgb(38, 50, 56); transform-origin: 550.183px 382.798px;" id="elq8adaz3nj5e" class="animable"></path><path d="M547.05,357.48a2.34,2.34,0,0,1-.07-3.3l14.27-14.86a2.33,2.33,0,0,1,3.37,3.23l-14.27,14.86A2.34,2.34,0,0,1,547.05,357.48Z" style="fill: rgb(38, 50, 56); transform-origin: 555.8px 348.365px;" id="elfk9q1owbrxu" class="animable"></path><path d="M528,421.94a2.34,2.34,0,0,1,2.14-2.52l20.53-1.71a2.33,2.33,0,0,1,.38,4.65l-20.53,1.71A2.35,2.35,0,0,1,528,421.94Z" style="fill: rgb(38, 50, 56); transform-origin: 540.593px 420.89px;" id="elzy2d08i3u4" class="animable"></path><path d="M614.38,228c-5.44,2.14-44.61-.25-47.28,5.83s15.16.91,23,3.5,33.62,11.26,39.72,3.5C640.26,227.5,625.92,223.49,614.38,228Z" style="fill: rgb(38, 50, 56); transform-origin: 600.133px 235.105px;" id="el1puv535ovrk" class="animable"></path><path d="M371.22,364.68a.26.26,0,0,1-.25-.21A52.43,52.43,0,0,1,396.23,311a.23.23,0,0,1,.34.09.25.25,0,0,1-.09.34,51.9,51.9,0,0,0-25,53,.25.25,0,0,1-.21.29Z" style="fill: rgb(224, 224, 224); transform-origin: 383.461px 337.839px;" id="elsrn5offp4z" class="animable"></path><path d="M463.7,384.7a.23.23,0,0,1-.17-.07.25.25,0,0,1,0-.35,27.07,27.07,0,0,0,6.13-10.17c1.56-4.32,2.31-8.74,2-11.82a.25.25,0,0,1,.23-.27.23.23,0,0,1,.27.22c.3,3.15-.47,7.65-2.05,12a27.6,27.6,0,0,1-6.24,10.35A.24.24,0,0,1,463.7,384.7Z" style="fill: rgb(224, 224, 224); transform-origin: 467.841px 373.358px;" id="elxqd1i6cx6ui" class="animable"></path></g><path d="M693.68,324a.24.24,0,0,1-.2-.11,51.94,51.94,0,0,0-54.72-21,.26.26,0,0,1-.3-.19.25.25,0,0,1,.19-.3,52.42,52.42,0,0,1,55.24,21.22.24.24,0,0,1-.06.34A.3.3,0,0,1,693.68,324Z" style="fill: rgb(224, 224, 224); transform-origin: 666.195px 312.492px;" id="elkcw2fe1ey0c" class="animable"></path><path d="M645.43,403.36a35.45,35.45,0,0,1-9.21-1.37,27.55,27.55,0,0,1-10.78-5.45.25.25,0,0,1,.32-.39,27.14,27.14,0,0,0,10.59,5.36c4.43,1.23,8.89,1.66,11.94,1.14a.24.24,0,0,1,.29.2.24.24,0,0,1-.2.29A17.73,17.73,0,0,1,645.43,403.36Z" style="fill: rgb(224, 224, 224); transform-origin: 636.967px 399.727px;" id="el4e7hxkxf7tq" class="animable"></path><g id="elklq50w438a"><circle cx="424.05" cy="355.24" r="11.46" style="fill: rgb(248, 80, 10); transform-origin: 424.05px 355.24px; transform: rotate(-21.57deg);" class="animable"></circle></g><g id="elxhr6rj2k8l"><circle cx="647.27" cy="355.24" r="11.46" style="fill: rgb(248, 80, 10); transform-origin: 647.27px 355.24px; transform: rotate(-22.67deg);" class="animable"></circle></g><path d="M461.68,235.42H436.25l-9.47,14.27-12.64.23a1.79,1.79,0,0,0-1.76,1.79h0a1.78,1.78,0,0,0,1.75,1.78l15.64.35,9.6-11.67,11.28.7-5.58,24.59,4.89,1,5.51-15.45,11.55.58.62-4.59v-9.21Z" style="fill: rgb(248, 80, 10); transform-origin: 440.01px 251.94px;" id="elfr2npucga48" class="animable"></path><path d="M466.54,230.5H432a2.37,2.37,0,0,1-1.36-.44c-7-5-18.46-13.17-19.81-14a2.34,2.34,0,0,1,1.6-4.36c.55.14.91.23,20.32,14.12h33.81a2.34,2.34,0,1,1,0,4.67Z" style="fill: rgb(38, 50, 56); transform-origin: 439.307px 221.07px;" id="el5zbgvmfe94x" class="animable"></path><path d="M496.43,168.68l-18.61,12.74s-2.18,13.22-2.37,13.77-1.76,13.1-2.65,18.78c-.23,1.47-1.94,3.29-3.42,3.37l-24.05,1.23-3.52,9.09s39,4.29,42.69,1.69,11.34-30.28,13.38-36S506.08,174.06,496.43,168.68Z" style="fill: rgb(248, 80, 10); transform-origin: 471.755px 199.433px;" id="elw84j4zp0b5" class="animable"></path><path d="M445.07,219.25s-14.19-5.18-17-4.27-7.59,5.85-7.52,7.37,2.2,3,2.2,3-.6,1.82.46,2.36a19.45,19.45,0,0,1,1.75,1,2.05,2.05,0,0,0,1.74,1.45,11.62,11.62,0,0,0,3.42,0l-1.22-1.75,2.74-1.59a6.78,6.78,0,0,0,6.45,1.82,34.88,34.88,0,0,1,6.46-.76Z" style="fill: rgb(235, 179, 118); transform-origin: 432.81px 222.58px;" id="el5f10gkk9xa" class="animable"></path><path d="M586.72,190.13s-3.92-12.1-31.46-18.87-49.44-8.13-62.09-3.61-15.35,13.77-15.35,13.77l14.37,28,54,7.86,2.71,2.93S574,205.35,581,198.58,586.72,190.13,586.72,190.13Z" style="fill: rgb(248, 80, 10); transform-origin: 532.316px 192.613px;" id="el71qvp40pi06" class="animable"></path><path d="M496.43,168.68l-18.61,12.74s-2.18,13.22-2.37,13.77-1.76,13.1-2.65,18.78c-.23,1.47-1.94,3.29-3.42,3.37l-24.05,1.23-3,9.59s38.43,3.79,42.14,1.19,11.34-30.28,13.38-36S506.08,174.06,496.43,168.68Z" style="fill: rgb(38, 50, 56); transform-origin: 472.01px 199.471px;" id="eloclgov4qhe" class="animable"></path><path d="M586.72,190.13s-3.92-12.1-31.46-18.87-49.44-8.13-62.09-3.61-15.35,13.77-15.35,13.77l14.37,28,54,7.86,2.71,2.93S574,205.35,581,198.58,586.72,190.13,586.72,190.13Z" style="fill: rgb(38, 50, 56); transform-origin: 532.316px 192.613px;" id="el6rg2zmw8vpq" class="animable"></path><g id="el888trea7syu"><polygon points="492.99 209.58 499.65 210.55 497.52 190.13 492.99 209.58" style="opacity: 0.3; transform-origin: 496.32px 200.34px;" class="animable"></polygon></g><path d="M543.5,210.31c-4.59.93-18.56,6.26-34,16.45s-25.28,19.4-23.61,28.89,64.05,71,64.05,71l10.11-6.41s-16.15-38.17-27-47.2a110.36,110.36,0,0,1-12.83-12.48,3.36,3.36,0,0,1,1.66-5.43L557,242.58l17.11-23.47Z" style="fill: rgb(235, 179, 118); transform-origin: 529.908px 268.48px;" id="elb3uapoe7wim" class="animable"></path><polygon points="561.85 323.07 560.39 328.71 549.77 331.15 535.59 312.2 552.03 302.67 561.85 323.07" style="fill: rgb(255, 255, 255); transform-origin: 548.72px 316.91px;" id="eljmt0k3jmgje" class="animable"></polygon><path d="M548.73,330.24l3.34-2.58a3,3,0,0,1,2.67-.48c4,1.14,4.64-1,4.82-5.07,1.21-1.18,2.75.07,3.18.39l9.52,7.15a1.81,1.81,0,0,1,.39,2.52,2,2,0,0,1-.38.38l-11,8.53L545.82,353c-4.21,3.26-8.36-.31-6.93-2,6.46-7.76,10.2-14.32,10.86-18.45C549.89,331.79,549.2,331.85,548.73,330.24Z" style="fill: rgb(248, 80, 10); transform-origin: 555.799px 337.969px;" id="el45jrrpne6qv" class="animable"></path><path d="M548.41,334.86a.25.25,0,0,1-.22-.12.26.26,0,0,1,.09-.35,5.36,5.36,0,0,1,4.46-.38.25.25,0,0,1,.15.32.24.24,0,0,1-.32.15,4.85,4.85,0,0,0-4,.35A.27.27,0,0,1,548.41,334.86Z" style="fill: rgb(38, 50, 56); transform-origin: 550.53px 334.277px;" id="elhdn6pglbnif" class="animable"></path><path d="M547.54,338a.25.25,0,0,1-.12-.47,5.32,5.32,0,0,1,4.46-.38.25.25,0,0,1,.15.32.26.26,0,0,1-.32.15,4.85,4.85,0,0,0-4,.35A.31.31,0,0,1,547.54,338Z" style="fill: rgb(38, 50, 56); transform-origin: 549.667px 337.415px;" id="elutlgh4pkzr9" class="animable"></path><path d="M546,341.34a.26.26,0,0,1-.22-.13.25.25,0,0,1,.09-.34,5.36,5.36,0,0,1,4.46-.38.24.24,0,0,1,.15.32.26.26,0,0,1-.32.15,4.81,4.81,0,0,0-4,.35Z" style="fill: rgb(38, 50, 56); transform-origin: 548.122px 340.756px;" id="elwv1fc892ii" class="animable"></path><path d="M504.2,230.4l19,24.4,30.53-9.46a57.82,57.82,0,0,0,8.31-3.32l26.87-13.31-2.11-37.15L554,203.76C537.16,209,515.8,220.68,504.2,230.4Z" style="fill: rgb(248, 80, 10); transform-origin: 546.555px 223.18px;" id="elh59ax8ce69l" class="animable"></path><path d="M504.2,230.4l19,24.4,29.5-9.14A71,71,0,0,0,563,241.54l25.9-12.83-2.11-37.15L554,203.76C537.16,209,515.8,220.68,504.2,230.4Z" style="fill: rgb(248, 80, 10); transform-origin: 546.55px 223.18px;" id="elpgknesfya" class="animable"></path><g id="elfywolusb1zv"><path d="M504.2,230.4l19,24.4,29.86-9.26a64.19,64.19,0,0,0,9.61-3.84l26.24-13-2.11-37.15L554,203.76C537.16,209,515.8,220.68,504.2,230.4Z" style="opacity: 0.2; transform-origin: 546.555px 223.175px;" class="animable"></path></g><g id="el989aeyvstbo"><polygon points="511.69 240.02 556.52 215.34 574.14 216.29 517.24 247.14 511.69 240.02" style="fill: rgb(255, 255, 255); opacity: 0.3; transform-origin: 542.915px 231.24px;" class="animable"></polygon></g></g><g id="freepik--character-1--inject-74" class="animable" style="transform-origin: 235.165px 284.261px;"><path d="M241.47,209.39c-4.59.93-18.56,6.26-34,16.45s-25.28,19.4-23.61,28.89,64.05,71,64.05,71l11-7s-17-37.61-27.87-46.64a110.36,110.36,0,0,1-12.83-12.48,3.36,3.36,0,0,1,1.65-5.43l35.32-9.92,16.92-26.13Z" style="fill: rgb(205, 122, 99); transform-origin: 227.888px 267.56px;" id="el8t3sxm3czh" class="animable"></path><g id="elhsq6dbvrq2e"><path d="M231.88,272.9s-8.62,28-4.67,32,8.52,8.82,8.89,8.82,4.62-31.61,4.62-31.61Z" style="opacity: 0.3; transform-origin: 233.447px 293.31px;" class="animable"></path></g><polygon points="259.82 322.15 258.36 327.8 247.74 330.23 233.56 311.28 250 301.75 259.82 322.15" style="fill: rgb(255, 255, 255); transform-origin: 246.69px 315.99px;" id="el2ou87usmdme" class="animable"></polygon><path d="M246.7,329.32l3.34-2.58a3,3,0,0,1,2.67-.48c4,1.14,4.64-1,4.82-5.07,1.21-1.18,2.75.07,3.18.39l9.52,7.15a1.82,1.82,0,0,1,.39,2.53,1.9,1.9,0,0,1-.38.37l-11,8.53L243.79,352.1c-4.21,3.26-8.36-.31-6.93-2,6.46-7.75,10.2-14.32,10.86-18.45C247.86,330.87,247.17,330.93,246.7,329.32Z" style="fill: rgb(248, 80, 10); transform-origin: 253.769px 337.059px;" id="elvxo7f4mcq9g" class="animable"></path><path d="M246.38,333.94a.25.25,0,0,1-.22-.12.26.26,0,0,1,.09-.35,5.36,5.36,0,0,1,4.46-.38.25.25,0,0,1-.17.47,4.85,4.85,0,0,0-4,.35Z" style="fill: rgb(38, 50, 56); transform-origin: 248.497px 333.356px;" id="elggf5nuwzmo" class="animable"></path><path d="M245.51,337.11a.27.27,0,0,1-.22-.13.26.26,0,0,1,.1-.34,5.36,5.36,0,0,1,4.46-.38.25.25,0,1,1-.17.47,4.85,4.85,0,0,0-4,.35A.31.31,0,0,1,245.51,337.11Z" style="fill: rgb(38, 50, 56); transform-origin: 247.642px 336.527px;" id="elnxjhdwlaku" class="animable"></path><path d="M244,340.42a.24.24,0,0,1-.22-.13.25.25,0,0,1,.09-.34,5.36,5.36,0,0,1,4.46-.38.25.25,0,1,1-.17.47,4.85,4.85,0,0,0-4,.35A.27.27,0,0,1,244,340.42Z" style="fill: rgb(38, 50, 56); transform-origin: 246.124px 339.837px;" id="elo6r3hs46oub" class="animable"></path><path d="M202.17,229.48l19,24.4L241,248.53l8.2-30.08-7-10.55A166.8,166.8,0,0,0,202.17,229.48Z" style="fill: rgb(38, 50, 56); transform-origin: 225.685px 230.89px;" id="el2sw9asbtew" class="animable"></path><path d="M238.89,248.91l6.15-24-4.32-5.58s1.87,5.61,1.25,6.16S227.9,252,227.9,252Z" id="elkdogh5tdx8g" class="animable" style="transform-origin: 236.47px 235.665px;"></path><g id="freepik--freepik-character-inject-280--inject-74" class="animable" style="transform-origin: 235.165px 325.014px;"><path d="M346.78,291.42a65,65,0,1,1-65,65,65.05,65.05,0,0,1,65-65m0-9.33h0a74.31,74.31,0,0,0-74.31,74.31h0a74.31,74.31,0,1,0,74.3-74.32Z" style="fill: rgb(38, 50, 56); transform-origin: 346.78px 356.39px;" id="el0b97ycvjf2r" class="animable"></path><path d="M275.65,356.4a71.13,71.13,0,1,0,71.13-71.12A71.14,71.14,0,0,0,275.65,356.4Z" style="fill: rgb(248, 80, 10); transform-origin: 346.78px 356.41px;" id="elmur6hcsnlir" class="animable"></path><path d="M123.55,291.42a65.05,65.05,0,0,1,65,65h0a65,65,0,1,1-65-65m0-9.33a74.31,74.31,0,1,0,74.31,74.31,74.31,74.31,0,0,0-74.31-74.31Z" style="fill: rgb(38, 50, 56); transform-origin: 123.55px 356.4px;" id="el3lthayr1nhx" class="animable"></path><path d="M52.44,356.4a71.13,71.13,0,1,0,71.12-71.12A71.13,71.13,0,0,0,52.44,356.4Z" style="fill: rgb(248, 80, 10); transform-origin: 123.57px 356.41px;" id="elsdjtx3wlvpj" class="animable"></path><path d="M344.37,346.37A8,8,0,0,1,346.51,362h-.13L248.31,393.5a13.81,13.81,0,0,1-6.84-26.76l100.48-20h.25a7.88,7.88,0,0,1,2.16-.3h0m0-3.55a11.58,11.58,0,0,0-3.09.43L240.7,363.4a17.3,17.3,0,1,0,8.55,33.53l98.18-31.48a11.48,11.48,0,0,0-3.06-22.58Z" style="fill: rgb(38, 50, 56); transform-origin: 291.819px 370.17px;" id="elkcu220r5rka" class="animable"></path><path d="M243.64,380.1,144.4,266.88a3.1,3.1,0,0,1,.48-4.45,3.67,3.67,0,0,1,4.93.32l95.61,109,60-132.44a3.6,3.6,0,0,1,4.58-1.73,3.18,3.18,0,0,1,1.87,4.27L249.61,379.34a3.47,3.47,0,0,1-2.73,2h-.5A3.59,3.59,0,0,1,243.64,380.1Z" style="fill: rgb(38, 50, 56); transform-origin: 227.903px 309.327px;" id="eluufy2fvicn" class="animable"></path><path d="M343.64,354.94l-46.78-92.06c0-.07-.07-.13-.1-.21a2.12,2.12,0,0,1,1.27-2.83,2.39,2.39,0,0,1,3,1.18l46.79,92.06a2,2,0,0,1,.23.94,2.26,2.26,0,0,1-2.34,2.17A2.36,2.36,0,0,1,343.64,354.94Z" style="fill: rgb(38, 50, 56); transform-origin: 322.322px 307.937px;" id="elpw7q1973jv" class="animable"></path><path d="M121.66,357.13a3.23,3.23,0,0,1-2.51-4L148,248.67a3.5,3.5,0,0,1,3.71-2.44l147.61,12.45a3.34,3.34,0,0,1,3.18,3.55,3.44,3.44,0,0,1-3.81,3L154,253,125.93,354.82a3.45,3.45,0,0,1-3.39,2.45A2.94,2.94,0,0,1,121.66,357.13Z" style="fill: rgb(38, 50, 56); transform-origin: 210.774px 301.741px;" id="elmgq44u56dcs" class="animable"></path><path d="M150.83,252.73h0a3.31,3.31,0,0,1-3-3.69l4.24-26.92a3.47,3.47,0,0,1,4-2.75,3.3,3.3,0,0,1,3,3.7L154.86,250a3.43,3.43,0,0,1-3.5,2.79A3.08,3.08,0,0,1,150.83,252.73Z" style="fill: rgb(38, 50, 56); transform-origin: 153.451px 236.056px;" id="elg5trxu7sakj" class="animable"></path><path d="M236.69,418.67l18.45-74.87a2.33,2.33,0,0,1,4.52,1.11l-18.47,74.92a2.19,2.19,0,0,1-.23.58,2.32,2.32,0,0,1-4.27-1.74Z" style="fill: rgb(38, 50, 56); transform-origin: 248.153px 381.878px;" id="el9zoda6uhiav" class="animable"></path><path d="M245,356.56a2.34,2.34,0,0,1-.07-3.3l14.27-14.86a2.33,2.33,0,0,1,3.37,3.23l-14.27,14.86A2.34,2.34,0,0,1,245,356.56Z" style="fill: rgb(38, 50, 56); transform-origin: 253.751px 347.444px;" id="el39n96z1qmm4" class="animable"></path><path d="M226,421a2.34,2.34,0,0,1,2.14-2.52l20.53-1.71a2.33,2.33,0,0,1,.38,4.65l-20.53,1.71A2.35,2.35,0,0,1,226,421Z" style="fill: rgb(38, 50, 56); transform-origin: 238.589px 419.95px;" id="elffku5iulokn" class="animable"></path><path d="M312.35,227.1c-5.44,2.14-44.61-.25-47.28,5.83s15.16.91,23,3.5,33.62,11.26,39.72,3.5C338.23,226.58,323.89,222.57,312.35,227.1Z" style="fill: rgb(248, 80, 10); transform-origin: 298.103px 234.199px;" id="el30wp2wykwcs" class="animable"></path><path d="M69.19,363.76a.26.26,0,0,1-.25-.21A52.43,52.43,0,0,1,94.2,310a.25.25,0,1,1,.25.43,51.9,51.9,0,0,0-25,53,.25.25,0,0,1-.21.29Z" style="fill: rgb(38, 50, 56); transform-origin: 81.4368px 336.856px;" id="elp7thjkv89th" class="animable"></path><path d="M161.67,383.79a.25.25,0,0,1-.17-.08.25.25,0,0,1,0-.35,26.94,26.94,0,0,0,6.13-10.16c1.56-4.33,2.32-8.75,2-11.83a.25.25,0,0,1,.5-.05c.3,3.15-.47,7.66-2,12.05a27.64,27.64,0,0,1-6.24,10.34A.25.25,0,0,1,161.67,383.79Z" style="fill: rgb(38, 50, 56); transform-origin: 165.811px 372.443px;" id="elepan8x59k14" class="animable"></path></g><path d="M247.38,364.88a17.29,17.29,0,0,0-17.28,17.3h0a17.3,17.3,0,1,0,17.3-17.3Z" style="fill: rgb(38, 50, 56); transform-origin: 247.4px 382.18px;" id="elg3d1lpfnmm" class="animable"></path><path d="M391.65,323.08a.26.26,0,0,1-.2-.11,51.94,51.94,0,0,0-54.72-21,.25.25,0,0,1-.3-.19.26.26,0,0,1,.19-.3,52.42,52.42,0,0,1,55.24,21.22.24.24,0,0,1-.06.34A.3.3,0,0,1,391.65,323.08Z" style="fill: rgb(38, 50, 56); transform-origin: 364.166px 311.572px;" id="elt4w0k3lirjd" class="animable"></path><path d="M343.4,402.45a35.49,35.49,0,0,1-9.21-1.38,27.55,27.55,0,0,1-10.78-5.45.25.25,0,0,1,0-.36.25.25,0,0,1,.35,0,27.12,27.12,0,0,0,10.59,5.35c4.43,1.23,8.9,1.66,11.94,1.14a.25.25,0,1,1,.09.49A17.67,17.67,0,0,1,343.4,402.45Z" style="fill: rgb(38, 50, 56); transform-origin: 334.97px 398.82px;" id="elpab0fj0uzm" class="animable"></path><circle cx="122.02" cy="354.32" r="11.46" style="fill: rgb(38, 50, 56); transform-origin: 122.02px 354.32px;" id="eluygjk9bpdoe" class="animable"></circle><circle cx="345.24" cy="354.32" r="11.46" style="fill: rgb(38, 50, 56); transform-origin: 345.24px 354.32px;" id="el2c05w372m27" class="animable"></circle><path d="M159.65,234.5H134.22l-9.47,14.27-12.64.23a1.79,1.79,0,0,0-1.76,1.79h0a1.78,1.78,0,0,0,1.75,1.78l15.64.35,9.6-11.67,11.28.7L143,266.54l4.89,1,5.51-15.45,11.55.58.62-4.59v-9.21Z" style="fill: rgb(38, 50, 56); transform-origin: 137.96px 251.02px;" id="ellvab2epcis" class="animable"></path><path d="M164.51,229.38H130a2.11,2.11,0,0,1-1.24-.4c-7-5-18.52-13.21-19.83-14a2.13,2.13,0,0,1,1.45-4c.51.12.87.21,20.3,14.12h33.88a2.14,2.14,0,1,1,0,4.27Z" style="fill: rgb(38, 50, 56); transform-origin: 137.235px 220.133px;" id="elsjgi474z4ql" class="animable"></path><path d="M187.44,173.09s-12.11-4.67-11.76-8c0,0-.66.28-.67.28-1-1.53-1.82-3-2.53-4.3l0,0L169,180.8c3.24,2.34,13.55,8.27,15.41,11.06,0,0-2.55,5.78,2.85.1C191.19,187.81,187.44,173.09,187.44,173.09Z" style="fill: rgb(205, 122, 99); transform-origin: 179.027px 177.764px;" id="el50d44st3g7" class="animable"></path><g id="elr71lj0s6f2c"><path d="M173.89,184l4-8c1.69,2.69,4.37,5.38,0,10.67C177.89,186.61,174.94,184.8,173.89,184Z" style="opacity: 0.2; transform-origin: 177.077px 181.335px;" class="animable"></path></g><path d="M139.19,170c1.61,4.12,7.61,10.41,10.43,4.52S136.42,163,139.19,170Z" style="fill: rgb(38, 50, 56); transform-origin: 144.411px 171.837px;" id="el0e2ly0xoy2ei" class="animable"></path><path d="M166.35,155.48c7.31,8,11.59,12.42,11.71,20.19.19,11.7-12.4,17.7-22,12-8.62-5.14-19.11-17.41-14.72-28A15,15,0,0,1,166.35,155.48Z" style="fill: rgb(205, 122, 99); transform-origin: 159.184px 170.164px;" id="el90drgmd6p0s" class="animable"></path><path d="M158.44,145.32c-5.32-3.1-16.27,7.67-17,12.8-.11.76,9.26-2.49,8.75-2.24l3.94-2c.35-.56,1.77-.94,3.65,0,0,0,7.11,9.14,13.84,9.12,1.73-4.88,1.25-7.15-.72-10.74C168,146.91,162.51,145.88,158.44,145.32Z" style="fill: rgb(38, 50, 56); transform-origin: 157.061px 153.885px;" id="elv81xzfix1m8" class="animable"></path><path d="M157.78,168.78c.79.77,1,1.82.51,2.33s-1.57.31-2.36-.47-1-1.81-.52-2.33S157,168,157.78,168.78Z" style="fill: rgb(38, 50, 56); transform-origin: 156.854px 169.708px;" id="eln5rjs8bnkks" class="animable"></path><path d="M150.35,176.72c.8.78,1,1.82.51,2.34s-1.57.3-2.36-.47-1-1.82-.51-2.33S149.56,176,150.35,176.72Z" style="fill: rgb(38, 50, 56); transform-origin: 149.426px 177.667px;" id="eljsn1h8ft5cq" class="animable"></path><path d="M152.38,173.76s1.5,6.36,2.32,8.73c2.08-.14,3.47-2.49,3.47-2.49Z" style="fill: rgb(173, 99, 89); transform-origin: 155.275px 178.125px;" id="elvpems75407" class="animable"></path><path d="M155.92,163.19a.49.49,0,0,1-.41.32,4.2,4.2,0,0,0-3.16,2.05.53.53,0,0,1-.7.25.52.52,0,0,1-.24-.69,5.2,5.2,0,0,1,4-2.63.52.52,0,0,1,.59.44A.46.46,0,0,1,155.92,163.19Z" style="fill: rgb(38, 50, 56); transform-origin: 153.68px 164.172px;" id="elat96m0778c5" class="animable"></path><path d="M165.32,172.19l-3.78,9.21a13.62,13.62,0,0,0,3.47.47,4.11,4.11,0,0,0,2.91-1.44,4.22,4.22,0,0,0,.75-4.58A9.72,9.72,0,0,0,165.32,172.19Z" id="elesboo19ffbv" class="animable" style="transform-origin: 165.288px 177.03px;"></path><path d="M161.84,180.66s1.32.29,1.83,0,3-7.35,3-7.35l-1.38-1.08Z" style="fill: rgb(255, 255, 255); transform-origin: 164.255px 176.509px;" id="elfo1ycoum6w6" class="animable"></path><path d="M167,181.22a4.11,4.11,0,0,1-.25-3.42,4.29,4.29,0,0,1,1.65-2.47,4.32,4.32,0,0,1,.42,3.55A4.06,4.06,0,0,1,167,181.22Z" style="fill: rgb(222, 87, 83); transform-origin: 167.757px 178.275px;" id="el17t5ne7g77o" class="animable"></path><path d="M143.65,176.9a.55.55,0,0,1-.29.08.51.51,0,0,1-.52-.51,5.12,5.12,0,0,1,2.06-4.24.52.52,0,0,1,.72.15.51.51,0,0,1-.14.71,4,4,0,0,0-1.6,3.38A.51.51,0,0,1,143.65,176.9Z" style="fill: rgb(38, 50, 56); transform-origin: 144.273px 174.563px;" id="eljrnimlg8vwg" class="animable"></path><path d="M175.81,158.71a10.15,10.15,0,0,1,.73,7.82c-1.1,3.44-4.69,3.19-6.92.59-2-2.34-3.86-7-1.53-9.6S174.22,155.78,175.81,158.71Z" style="fill: rgb(205, 122, 99); transform-origin: 172.006px 162.531px;" id="elkub2yikkv0s" class="animable"></path><g id="elifz0vaw4xbe"><path d="M170.82,164.46a.25.25,0,0,1-.2-.09,5.72,5.72,0,0,1-1.2-2.65,3.64,3.64,0,0,1,.35-2.44,2.22,2.22,0,0,1,2.21-1.13.26.26,0,0,1,.21.29.25.25,0,0,1-.29.2,1.75,1.75,0,0,0-1.7.89,3.23,3.23,0,0,0-.29,2.11,5.16,5.16,0,0,0,1.1,2.41.24.24,0,0,1,0,.35A.22.22,0,0,1,170.82,164.46Z" style="opacity: 0.2; transform-origin: 170.769px 161.298px;" class="animable"></path></g><path d="M164.49,161.36s11.49,14.5,11.38,16.09c-.45,6.61-3.54,9.77-3.54,9.77s.73.17,2.3-2,3.31-4.77,3.26-7-6.16-10.09-7.36-12.4a72.05,72.05,0,0,0-4.05-6.29Z" style="fill: rgb(38, 50, 56); transform-origin: 171.191px 173.377px;" id="eld2f0oj9vwiu" class="animable"></path><polygon points="175.97 174.79 177.61 168.04 176.54 166.53 174.86 172.62 175.97 174.79" style="fill: rgb(38, 50, 56); transform-origin: 176.235px 170.66px;" id="elu2c4w2cb7zk" class="animable"></polygon><g id="el93m7fzuus2p"><path d="M141.33,178.18s7.88,8,8.68,7.64c3-1.24,12.86-14.26,13.11-15.07s-1.13-9.44-1.43-9.62-5-2.26-5.31-2.12a34.61,34.61,0,0,0-4,1.84C152,161.25,141.33,178.18,141.33,178.18Z" style="fill: rgb(248, 80, 10); opacity: 0.4; transform-origin: 152.24px 172.418px;" class="animable"></path></g><g id="elkstiz622g7p"><path d="M148.37,185.58c-.07-.06,2.22-18.77,2.22-18.77s3.33-4.63,3.23-4.27-2.71,22.63-2.82,22.72a6.31,6.31,0,0,1-1.45,1,.49.49,0,0,1-.28-.06A6.59,6.59,0,0,1,148.37,185.58Z" style="fill: rgb(255, 255, 255); opacity: 0.3; transform-origin: 151.095px 174.391px;" class="animable"></path></g><path d="M175.54,137.87c1.32,0,7.87-.23,4.87,3.91S169,155.13,169,155.13c0,3.81.81,7.26-.17,9.2s-6,6.75-6,6.75-3-2.62-3.14-5.76-.72-4.18-3.44-3.67-15,17.11-15,17.11-5.06-5-6.39-10.9c-1.26-5.59,0-12.64,6.91-19.17C153.28,137.84,167.34,137.6,175.54,137.87Z" style="fill: rgb(38, 50, 56); transform-origin: 157.808px 158.286px;" id="el9f2iji7wokn" class="animable"></path><path d="M147,171.2s-8.35-7.16-5.7-14.52c3.6-10,16.93-17.16,16.74-17.11s-3.37,1.08-3.56,1.16-13.08,6.89-15.34,16.86a20.56,20.56,0,0,0,6.3,15.5Z" style="fill: rgb(248, 80, 10); transform-origin: 148.585px 156.33px;" id="el167c25z1wgc" class="animable"></path><path d="M194.4,167.76,175.79,180.5s-2.18,13.22-2.37,13.77-1.76,13.1-2.65,18.78c-.23,1.47-1.94,3.29-3.42,3.37l-24,1.23-3.53,9.1s39,4.28,42.7,1.68,11.34-30.28,13.38-36S204.05,173.15,194.4,167.76Z" style="fill: rgb(248, 80, 10); transform-origin: 169.754px 198.514px;" id="elxvfg7x0xu28" class="animable"></path><path d="M243.15,392a163.74,163.74,0,0,1-2.43-16.65c-2.24-22.62-5.54-60.85-8.47-67.37-2.71-6,.9-18.21,1.19-22.65.59-9.07,5.22-32.44,5.22-32.44s31.38,14.22,30.48,14.9-9.44,34-9.44,34,2.1,11.91,3.41,25.34c1.47,15-6.86,67.52-6.86,67.52Z" style="fill: rgb(205, 122, 99); transform-origin: 250.203px 323.77px;" id="elqdlxx8zua2" class="animable"></path><path d="M143,218.33s-14.19-5.18-17-4.26-7.59,5.84-7.52,7.36,2.2,3,2.2,3-.6,1.83.46,2.36a19.45,19.45,0,0,1,1.75,1,2.05,2.05,0,0,0,1.74,1.45,11.62,11.62,0,0,0,3.42,0l-1.22-1.75,2.74-1.59a6.78,6.78,0,0,0,6.45,1.82,36.06,36.06,0,0,1,6.46-.76Z" style="fill: rgb(205, 122, 99); transform-origin: 130.74px 221.664px;" id="eld7fsdo5byar" class="animable"></path><polygon points="256.23 401.53 251.79 405.31 241.7 401.18 240.72 375.3 258.84 377.86 256.23 401.53" style="fill: rgb(255, 255, 255); transform-origin: 249.78px 390.305px;" id="elu66abwewexp" class="animable"></polygon><path d="M241.38,399.84l4.22-.19a3,3,0,0,1,2.45,1.14c2.58,3.22,4.35,1.88,6.86-1.36,1.67-.27,2.21,1.64,2.37,2.15L261,412.91a1.82,1.82,0,0,1-1.14,2.29,2.36,2.36,0,0,1-.52.09l-13.92.62-19.5.87c-5.31.23-6.65-5.07-4.49-5.67,9.75-2.61,16.59-5.82,19.51-8.82C241.43,401.77,240.83,401.42,241.38,399.84Z" style="fill: rgb(248, 80, 10); transform-origin: 240.767px 408.096px;" id="elxsna3pu3uvf" class="animable"></path><path d="M242.28,405.62a.26.26,0,0,1-.21-.11,4.83,4.83,0,0,0-3.5-2,.23.23,0,0,1-.22-.27.25.25,0,0,1,.27-.23,5.34,5.34,0,0,1,3.86,2.26.25.25,0,0,1-.2.39Z" style="fill: rgb(38, 50, 56); transform-origin: 240.435px 404.335px;" id="elhfgz9knjbz" class="animable"></path><path d="M239.75,407.71a.26.26,0,0,1-.21-.11,4.86,4.86,0,0,0-3.5-2,.25.25,0,0,1-.23-.27.25.25,0,0,1,.27-.23,5.36,5.36,0,0,1,3.87,2.26.24.24,0,0,1-.06.34A.3.3,0,0,1,239.75,407.71Z" style="fill: rgb(38, 50, 56); transform-origin: 237.902px 406.407px;" id="eluas1am3sqx" class="animable"></path><path d="M236.56,409.51a.25.25,0,0,1-.21-.1,4.82,4.82,0,0,0-3.5-2.05.25.25,0,0,1-.23-.27.26.26,0,0,1,.28-.22,5.33,5.33,0,0,1,3.86,2.25.25.25,0,0,1-.06.35A.23.23,0,0,1,236.56,409.51Z" style="fill: rgb(38, 50, 56); transform-origin: 234.713px 408.19px;" id="ela01rvmbdqwe" class="animable"></path><path d="M235.24,270.19c2.18-16.21,6.61-34.46,11.67-50.86l37.68-29s8.57,9.93,9.48,20.32-4.52,17.61-8.81,22.58-19.42,45.53-19.42,45.53Z" style="fill: rgb(38, 50, 56); transform-origin: 264.705px 234.545px;" id="elvyzi4ahz1fc" class="animable"></path><path d="M284.69,189.21s-3.92-12.1-31.46-18.87-49.44-8.13-62.09-3.61-15.35,13.77-15.35,13.77l14.37,28,54,7.86,2.71,2.93S272,204.43,279,197.66,284.69,189.21,284.69,189.21Z" style="fill: rgb(248, 80, 10); transform-origin: 230.289px 191.693px;" id="el1rzngv3j786" class="animable"></path><g id="elrsr67mrmjq"><path d="M195.76,188s48.63,2.8,56.76,8a46.46,46.46,0,0,1,12.61,12s-6.84,4.42-6.39,4.14-5.15-9.19-9.57-11.09-55-6.31-55-6.31Z" style="fill: rgb(255, 255, 255); opacity: 0.3; transform-origin: 229.65px 200.076px;" class="animable"></path></g><g id="el9bxzvetm6c9"><polygon points="190.96 208.66 197.62 209.63 195.49 189.21 190.96 208.66" style="opacity: 0.3; transform-origin: 194.29px 199.42px;" class="animable"></polygon></g><g id="ela1kn9thlt6h"><path d="M147.26,227.29l2.69-3.45s27.22.73,29.52-.83,6.07-12.66,6.07-12.66l3.93,2.22s-4.13,14.33-7,15.86C177,231.37,147.26,227.29,147.26,227.29Z" style="fill: rgb(255, 255, 255); opacity: 0.3; transform-origin: 168.365px 219.922px;" class="animable"></path></g><g id="el340pr9r4tba"><path d="M211.92,164.12l6.31,13.65,42.06,8.06,13.38-7.56s-4.88-3.82-16.48-6.88A223.42,223.42,0,0,0,211.92,164.12Z" style="fill: rgb(255, 255, 255); opacity: 0.3; transform-origin: 242.795px 174.975px;" class="animable"></path></g></g><defs>     <filter id="active" height="200%">         <feMorphology in="SourceAlpha" result="DILATED" operator="dilate" radius="2"></feMorphology>                <feFlood flood-color="#32DFEC" flood-opacity="1" result="PINK"></feFlood>        <feComposite in="PINK" in2="DILATED" operator="in" result="OUTLINE"></feComposite>        <feMerge>            <feMergeNode in="OUTLINE"></feMergeNode>            <feMergeNode in="SourceGraphic"></feMergeNode>        </feMerge>    </filter>    <filter id="hover" height="200%">        <feMorphology in="SourceAlpha" result="DILATED" operator="dilate" radius="2"></feMorphology>                <feFlood flood-color="#ff0000" flood-opacity="0.5" result="PINK"></feFlood>        <feComposite in="PINK" in2="DILATED" operator="in" result="OUTLINE"></feComposite>        <feMerge>            <feMergeNode in="OUTLINE"></feMergeNode>            <feMergeNode in="SourceGraphic"></feMergeNode>        </feMerge>            <feColorMatrix type="matrix" values="0   0   0   0   0                0   1   0   0   0                0   0   0   0   0                0   0   0   1   0 "></feColorMatrix>    </filter></defs></svg>